Coordinates
version=1
nRows=10
nColumns=22
inDegrees=yes

Units are S.I. units (second, meters, Newtons, ...)
If the header above contains a line with 'inDegrees', this indicates whether rotational values are in degrees (yes) or radians (no).

endheader
time	pelvis_tilt	pelvis_list	pelvis_rotation	pelvis_tx	pelvis_ty	pelvis_tz	hip_flexion_r	hip_adduction_r	hip_rotation_r	knee_angle_r	ankle_angle_r	subtalar_angle_r	hip_flexion_l	hip_adduction_l	hip_rotation_l	knee_angle_l	ankle_angle_l	subtalar_angle_l	lumbar_extension	lumbar_bending	lumbar_rotation
      3.64000000	     -0.81505752	      3.25652555	    173.60263547	      0.10818209	      1.06033568	     -0.59893046	     -6.30729880	     -0.44720438	    -10.88203489	    -15.40213340	     17.44050025	      3.53317298	     25.73226588	     -4.14726073	    -18.40157997	    -26.64545339	      6.70722775	     -7.65126149	     -7.33249864	     -2.19345659	      1.39448122
      3.65000000	     -0.78466699	      2.96606386	    173.87734915	      0.09962738	      1.05886129	     -0.59794138	     -6.57700535	     -0.83720085	    -11.09869469	    -15.77609744	     17.77016692	      3.66894590	     25.56148130	     -3.91077218	    -19.17928902	    -24.20705844	      6.52730792	     -7.50064547	     -7.21884168	     -2.48519585	      1.38781047
      3.66000000	     -0.73717676	      2.68028145	    174.12728321	      0.09096067	      1.05736725	     -0.59681731	     -6.81938810	     -1.23709600	    -11.30327076	    -16.18289595	     18.07144366	      3.84563143	     25.37292136	     -3.63795738	    -19.77061095	    -21.87306199	      6.37402751	     -7.33768819	     -7.07374265	     -2.77455466	      1.38314073
      3.67000000	     -0.68519586	      2.40454416	    174.35226766	      0.08214867	      1.05588903	     -0.59556870	     -7.05123153	     -1.64264339	    -11.48601787	    -16.61887564	     18.31607815	      4.07453028	     25.15348670	     -3.34606774	    -20.17809324	    -19.68058940	      6.24273424	     -7.17928192	     -6.90775773	     -3.05742101	      1.37821055
      3.68000000	     -0.64523731	      2.14595869	    174.55287279	      0.07313457	      1.05447480	     -0.59422411	     -7.30111387	     -2.04384831	    -11.62320231	    -17.06900456	     18.47992857	      4.38020719	     24.88551653	     -3.05711289	    -20.42613946	    -17.67079006	      6.11834865	     -7.05349910	     -6.73101387	     -3.32976199	      1.36962424
      3.69000000	     -0.61212531	      1.90744953	    174.72675442	      0.06388604	      1.05311284	     -0.59278623	     -7.55300861	     -2.44294351	    -11.73234735	    -17.55776658	     18.58408340	      4.72650156	     24.58701051	     -2.79444197	    -20.57133849	    -15.90632138	      5.98485424	     -7.00602942	     -6.53071396	     -3.58743224	      1.38543419
      3.70000000	     -0.60693970	      1.69798499	    174.88474038	      0.05433361	      1.05186911	     -0.59129040	     -7.86231461	     -2.81746875	    -11.77264135	    -18.02635179	     18.58876467	      5.16801886	     24.24405465	     -2.57971195	    -20.68402086	    -14.43881527	      5.83089093	     -7.07086876	     -6.32429903	     -3.83171721	      1.41435316
      3.71000000	     -0.62531941	      1.50750426	    175.02976447	      0.04448336	      1.05072437	     -0.58967431	     -8.19483285	     -3.18921876	    -11.76513160	    -18.53275161	     18.50911013	      5.66655130	     23.88848174	     -2.41462777	    -20.86973515	    -13.33668798	      5.63837996	     -7.26140077	     -6.10636900	     -4.06068430	      1.45826921
      3.72000000	     -0.67605273	      1.34249982	    175.18403187	      0.03430957	      1.04972226	     -0.58791281	     -8.58075286	     -3.53922476	    -11.68378595	    -19.04030419	     18.31191037	      6.27019024	     23.52904683	     -2.30487430	    -21.20351190	    -12.64044468	      5.37421965	     -7.59377038	     -5.88628785	     -4.26770976	      1.48861930
      3.73000000	     -0.74840527	      1.17490232	    175.34446171	      0.02382287	      1.04884192	     -0.58596580	     -8.98122235	     -3.90679578	    -11.56722405	    -19.59489957	     18.03606717	      6.91496354	     23.18986121	     -2.22621291	    -21.77755873	    -12.36515228	      5.05988200	     -8.02172124	     -5.65101134	     -4.48214491	      1.54035648
